# xmcd
#
# Track frame offsets: 
#        150
#        13135
#        25808
#        40212
#        54562
#        65903
#        80742
#        91334
#        107036
#        119974
#        131186
#        147807
#        161089
#        174470
#        185603
#        200047
#        214160
#        225845
#        239687
#        253432
#
# Disc length: 3557 seconds
#
# Revision: 0
# Processed by: cddbd v1.5.2PL0 Copyright (c) Steve Scherf et al.
# Submitted via: ExactAudioCopy v1.2
#
DISCID=370de314
DTITLE=B.B. King - Everyday I Have The Blues
DYEAR=2005
DGENRE=Blues
TTITLE0=Everyday I Have The Blues
TTITLE1=Got The Blues
TTITLE2=She Don't Move Me No More
TTITLE3=Whole Lotta Love
TTITLE4=She's Dynamite
TTITLE5=Why Did You Leave Me
TTITLE6=Don't You Want A Man Like Me
TTITLE7=Walkin' And Cryin'
TTITLE8=Highway Bound
TTITLE9=When Your Baby Packs Up And Goes
TTITLE10=The Other Night Blues
TTITLE11=Blues For Me
TTITLE12=Someday, Somewhere
TTITLE13=B.B. Blues
TTITLE14=B.B. Boogie
TTITLE15=You Know I Love You
TTITLE16=Hard Workin' Woman
TTITLE17=You Upset Me Baby
TTITLE18=Sneaking Around
TTITLE19=Questionnaire Blues
EXTD=
EXTT0=
EXTT1=
EXTT2=
EXTT3=
EXTT4=
EXTT5=
EXTT6=
EXTT7=
EXTT8=
EXTT9=
EXTT10=
EXTT11=
EXTT12=
EXTT13=
EXTT14=
EXTT15=
EXTT16=
EXTT17=
EXTT18=
EXTT19=
PLAYORDER=
